# xmcd
#
# Track frame offsets:
#	150
#	15813
#	29037
#	39715
#	52492
#	65156
#	76659
#	94052
#	105165
#	121755
#	136619
#
# Disc length: 2006 seconds
# Revision: 0
# Processed by: cddbd v1.5.2PL0 Copyright (c) Steve Scherf et al.
# Submitted via: dBpowerAMP V12.0
#
DISCID=8507d40b
DTITLE=Ingunn Og Alv-Magnus Tysse - Sangperler Fra Bedehusets Skattkammer
DYEAR=1997
DGENRE=Gospel
TTITLE0=Jeg Har Hørt Om en Himmel
TTITLE1=Jesus Frelseren
TTITLE2=Det Var Nåde
TTITLE3=Ingen Venn I Verden Er Som Jesus
TTITLE4=Født På NY
TTITLE5=Han Gir Meg Kjærlighet
TTITLE6=Hjemme I Himlen
TTITLE7=Kun for Ham Er de Kjent
TTITLE8=Jeg Vandrer I Dag
TTITLE9=Tenk at Jesus Selv Har Sagt
TTITLE10=Jo Lenger Jeg Tjener Ham
EXTD=
EXTT0=
EXTT1=
EXTT2=
EXTT3=
EXTT4=
EXTT5=
EXTT6=
EXTT7=
EXTT8=
EXTT9=
EXTT10=
PLAYORDER=
